<svg width="34" height="22" viewBox="0 0 34 22" fill="none" xmlns="http://www.w3.org/2000/svg">
<path fill-rule="evenodd" clip-rule="evenodd" d="M29.1693 6.51821V3.95166L30.6155 5.41827V6.51821H29.1693Z" fill="#3073BE"/>
<path d="M30.614 5.42041H29.1672V6.51862H30.614V5.42041Z" fill="black" fill-opacity="0.08"/>
<path fill-rule="evenodd" clip-rule="evenodd" d="M29.1672 4.32603V3.95166L30.614 5.41835V6.51836H30.2447V5.41835L29.1672 4.32603Z" fill="white" fill-opacity="0.28"/>
<path d="M30.614 6.2876H29.1672V6.51849H30.614V6.2876Z" fill="black" fill-opacity="0.18"/>
<path fill-rule="evenodd" clip-rule="evenodd" d="M17.0643 6.51821V3.95166L15.6182 5.41827V6.51821H17.0643Z" fill="#3073BE"/>
<path d="M15.6199 5.42041H17.0667V6.51862H15.6199V5.42041Z" fill="black" fill-opacity="0.08"/>
<path fill-rule="evenodd" clip-rule="evenodd" d="M17.0667 4.32603V3.95166L15.6199 5.41835V6.51836H15.9892V5.41835L17.0667 4.32603Z" fill="white" fill-opacity="0.28"/>
<path d="M15.6199 6.2876H17.0667V6.51849H15.6199V6.2876Z" fill="black" fill-opacity="0.18"/>
<path fill-rule="evenodd" clip-rule="evenodd" d="M17.0007 21.2669V3.29984L23.1491 0L29.2979 3.29984V21.2669H17.0007Z" fill="#FCEFD0"/>
<path fill-rule="evenodd" clip-rule="evenodd" d="M17.0002 21.2669V3.29984L23.1487 0V21.2669H17.0002Z" fill="black" fill-opacity="0.08"/>
<path fill-rule="evenodd" clip-rule="evenodd" d="M17.0003 21.2663V3.29924L18.1694 2.67188V21.2663H17.0003Z" fill="black" fill-opacity="0.08"/>
<path fill-rule="evenodd" clip-rule="evenodd" d="M25.8394 14.0806H20.4675L20.3357 21.6885H25.7077L25.8394 14.0806Z" fill="#0DCAF2"/>
<path fill-rule="evenodd" clip-rule="evenodd" d="M25.1504 4.37891H21.1528L21.0547 10.0402H25.0524L25.1504 4.37891Z" fill="#0DCAF2"/>
<path fill-rule="evenodd" clip-rule="evenodd" d="M21.7432 14.0806H20.467L20.3352 21.6885H21.6114L21.7432 14.0806Z" fill="black" fill-opacity="0.12"/>
<path fill-rule="evenodd" clip-rule="evenodd" d="M22.1055 4.37891H21.1561L21.0581 10.0402H22.0075L22.1055 4.37891Z" fill="black" fill-opacity="0.12"/>
<path fill-rule="evenodd" clip-rule="evenodd" d="M24.4294 14.0806H23.1532L23.0215 21.6885H24.2977L24.4294 14.0806Z" fill="black" fill-opacity="0.12"/>
<path fill-rule="evenodd" clip-rule="evenodd" d="M24.1045 4.37891H23.1551L23.0571 10.0402H24.0065L24.1045 4.37891Z" fill="black" fill-opacity="0.12"/>
<path fill-rule="evenodd" clip-rule="evenodd" d="M25.2098 14.0815H24.6732L23.261 21.6895H23.7973L25.2098 14.0815Z" fill="white" fill-opacity="0.5"/>
<path fill-rule="evenodd" clip-rule="evenodd" d="M24.6843 4.37842H24.285L23.2341 10.0397H23.6332L24.6843 4.37842Z" fill="white" fill-opacity="0.5"/>
<path fill-rule="evenodd" clip-rule="evenodd" d="M23.843 17.6973C23.7844 17.6973 23.7366 17.7203 23.7366 17.7488V18.8169C23.7366 18.8452 23.7844 18.8682 23.843 18.8682V17.6973Z" fill="black" fill-opacity="0.18"/>
<path fill-rule="evenodd" clip-rule="evenodd" d="M24.0273 18.8166V17.7485C24.0273 17.7202 23.9798 17.6973 23.9211 17.6973C23.8623 17.6973 23.8146 17.7202 23.8146 17.7485V18.8166C23.8146 18.8449 23.8623 18.8681 23.9211 18.8681C23.9798 18.8681 24.0273 18.8449 24.0273 18.8166Z" fill="#F8F8F8"/>
<path fill-rule="evenodd" clip-rule="evenodd" d="M23.9216 17.6973C23.863 17.6973 23.8152 17.7203 23.8152 17.7488V18.8169C23.8152 18.8452 23.863 18.8682 23.9216 18.8682V17.6973Z" fill="black" fill-opacity="0.18"/>
<path fill-rule="evenodd" clip-rule="evenodd" d="M22.2397 17.6973C22.1811 17.6973 22.1333 17.7203 22.1333 17.7488V18.8169C22.1333 18.8452 22.1811 18.8682 22.2397 18.8682V17.6973Z" fill="black" fill-opacity="0.18"/>
<path fill-rule="evenodd" clip-rule="evenodd" d="M22.4246 18.8166V17.7485C22.4246 17.7202 22.377 17.6973 22.3183 17.6973C22.2595 17.6973 22.2118 17.7202 22.2118 17.7485V18.8166C22.2118 18.8449 22.2595 18.8681 22.3183 18.8681C22.377 18.8681 22.4246 18.8449 22.4246 18.8166Z" fill="#F8F8F8"/>
<path fill-rule="evenodd" clip-rule="evenodd" d="M22.3183 17.6973C22.2597 17.6973 22.2119 17.7203 22.2119 17.7488V18.8169C22.2119 18.8452 22.2597 18.8682 22.3183 18.8682V17.6973Z" fill="black" fill-opacity="0.18"/>
<path fill-rule="evenodd" clip-rule="evenodd" d="M22.5633 14.0815H21.819L20.4067 21.6895H21.1508L22.5633 14.0815Z" fill="white" fill-opacity="0.5"/>
<path fill-rule="evenodd" clip-rule="evenodd" d="M22.7146 4.37842H22.1608L21.1099 10.0397H21.6635L22.7146 4.37842Z" fill="white" fill-opacity="0.5"/>
<path fill-rule="evenodd" clip-rule="evenodd" d="M23.3195 21.6901L23.4514 14.082C23.4514 13.9159 23.3177 13.7798 23.153 13.7798C22.9882 13.7798 22.8545 13.9159 22.8545 14.082L22.7226 21.6901C22.7226 21.8575 22.8566 21.9923 23.0211 21.9923C23.1858 21.9923 23.3195 21.8575 23.3195 21.6901Z" fill="white"/>
<path fill-rule="evenodd" clip-rule="evenodd" d="M23.2768 10.0406L23.375 4.3792C23.375 4.25559 23.2755 4.1543 23.1529 4.1543C23.0303 4.1543 22.9308 4.25559 22.9308 4.3792L22.8327 10.0406C22.8327 10.1652 22.9324 10.2655 23.0548 10.2655C23.1773 10.2655 23.2768 10.1652 23.2768 10.0406Z" fill="white"/>
<path fill-rule="evenodd" clip-rule="evenodd" d="M23.0212 21.9923L23.1531 13.7798C22.9883 13.7798 22.8546 13.9159 22.8546 14.082L22.7227 21.6901C22.7227 21.8575 22.8567 21.9923 23.0212 21.9923Z" fill="black" fill-opacity="0.08"/>
<path fill-rule="evenodd" clip-rule="evenodd" d="M23.0544 10.2655L23.1526 4.1543C23.03 4.1543 22.9305 4.25559 22.9305 4.3792L22.8323 10.0406C22.8323 10.1652 22.9321 10.2655 23.0544 10.2655Z" fill="black" fill-opacity="0.08"/>
<path fill-rule="evenodd" clip-rule="evenodd" d="M22.8779 14.0815H22.7233L21.311 21.6895H21.4653L22.8779 14.0815Z" fill="white" fill-opacity="0.5"/>
<path fill-rule="evenodd" clip-rule="evenodd" d="M22.9489 4.37842H22.8339L21.783 10.0397H21.8978L22.9489 4.37842Z" fill="white" fill-opacity="0.5"/>
<path fill-rule="evenodd" clip-rule="evenodd" d="M26.1382 14.0808C26.1382 13.9138 26.0046 13.7783 25.8397 13.7783H20.4679C20.303 13.7783 20.1694 13.9138 20.1694 14.0808L20.0376 21.6888C20.0376 21.8558 20.1712 21.9913 20.3361 21.9913H25.708C25.8728 21.9913 26.0064 21.8558 26.0064 21.6888L26.1382 14.0808ZM25.5413 14.3834L25.4096 21.3861H20.6345L20.7663 14.3834H25.5413Z" fill="white"/>
<path fill-rule="evenodd" clip-rule="evenodd" d="M25.3728 4.37842C25.3728 4.25412 25.2734 4.15332 25.1507 4.15332H21.1531C21.0304 4.15332 20.9309 4.25412 20.9309 4.37842L20.8329 10.0398C20.8329 10.164 20.9323 10.2649 21.055 10.2649H25.0527C25.1753 10.2649 25.2748 10.164 25.2748 10.0398L25.3728 4.37842ZM24.9286 4.60361L24.8306 9.81456H21.2771L21.3751 4.60361H24.9286Z" fill="white"/>
<path fill-rule="evenodd" clip-rule="evenodd" d="M25.7074 21.9923L25.8394 13.7798C25.6746 13.7798 25.5409 13.9159 25.5409 14.082L25.409 21.6901C25.409 21.8575 25.543 21.9923 25.7074 21.9923Z" fill="black" fill-opacity="0.08"/>
<path fill-rule="evenodd" clip-rule="evenodd" d="M25.0537 10.2655L25.1519 4.1543C25.0293 4.1543 24.9298 4.25559 24.9298 4.3792L24.8316 10.0406C24.8316 10.1652 24.9313 10.2655 25.0537 10.2655Z" fill="black" fill-opacity="0.08"/>
<path fill-rule="evenodd" clip-rule="evenodd" d="M20.3346 22.0001L20.4666 13.7876C20.3018 13.7876 20.1681 13.9237 20.1681 14.0898L20.0362 21.6979C20.0362 21.8653 20.1702 22.0001 20.3346 22.0001Z" fill="black" fill-opacity="0.08"/>
<path fill-rule="evenodd" clip-rule="evenodd" d="M21.0559 10.2713L21.1541 4.16016C21.0315 4.16016 20.932 4.26145 20.932 4.38506L20.8338 10.0464C20.8338 10.171 20.9335 10.2713 21.0559 10.2713Z" fill="black" fill-opacity="0.08"/>
<path d="M19.8695 13.4424H26.4355V14.1335H19.8695V13.4424Z" fill="#F2AF0D"/>
<path d="M20.7098 3.90234H25.5957V4.41631H20.7098V3.90234Z" fill="#F2AF0D"/>
<path d="M19.8693 13.4424H23.1523V14.1335H19.8693V13.4424Z" fill="black" fill-opacity="0.08"/>
<path d="M20.7096 3.90234H23.1526V4.41631H20.7096V3.90234Z" fill="black" fill-opacity="0.08"/>
<path d="M26.0796 13.4424H26.4355V14.1335H26.0796V13.4424Z" fill="white" fill-opacity="0.28"/>
<path d="M25.3317 3.90234H25.5962V4.41631H25.3317V3.90234Z" fill="white" fill-opacity="0.28"/>
<path d="M19.8708 13.4424H20.2268V14.1335H19.8708V13.4424Z" fill="black" fill-opacity="0.18"/>
<path d="M20.7101 3.90234H20.9746V4.41631H20.7101V3.90234Z" fill="black" fill-opacity="0.18"/>
<path d="M19.8695 13.7876H26.4355V14.1332H19.8695V13.7876Z" fill="black" fill-opacity="0.18"/>
<path d="M20.7098 4.16016H25.5957V4.41714H20.7098V4.16016Z" fill="black" fill-opacity="0.18"/>
<path fill-rule="evenodd" clip-rule="evenodd" d="M26.1387 14.1328V14.6355H20.17V14.1328H26.1387Z" fill="black" fill-opacity="0.18"/>
<path fill-rule="evenodd" clip-rule="evenodd" d="M25.3745 4.4165V4.7902H20.9332V4.4165H25.3745Z" fill="black" fill-opacity="0.18"/>
<path d="M2.533 6.87402H17.0002V21.1742H2.533V6.87402Z" fill="#E4E4E4"/>
<path d="M14.4052 13.1245H5.47363V21.613H14.4052V13.1245Z" fill="#A7A7A7"/>
<path d="M14.4052 13.1245H5.47363V13.7282H14.4052V13.1245Z" fill="black" fill-opacity="0.18"/>
<path fill-rule="evenodd" clip-rule="evenodd" d="M5.47297 17.8363H14.4044C14.5047 17.8363 14.5859 17.754 14.5859 17.6524C14.5859 17.5511 14.5047 17.4688 14.4044 17.4688H5.47297C5.3731 17.4688 5.2915 17.5511 5.2915 17.6524C5.2915 17.754 5.3731 17.8363 5.47297 17.8363Z" fill="#F0F0F0"/>
<path fill-rule="evenodd" clip-rule="evenodd" d="M5.47297 14.4408H14.4044C14.5047 14.4408 14.5859 14.3584 14.5859 14.2569C14.5859 14.1556 14.5047 14.0732 14.4044 14.0732H5.47297C5.3731 14.0732 5.2915 14.1556 5.2915 14.2569C5.2915 14.3584 5.3731 14.4408 5.47297 14.4408Z" fill="#F0F0F0"/>
<path fill-rule="evenodd" clip-rule="evenodd" d="M5.47297 18.9681H14.4044C14.5047 18.9681 14.5859 18.8858 14.5859 18.7842C14.5859 18.6829 14.5047 18.6006 14.4044 18.6006H5.47297C5.3731 18.6006 5.2915 18.6829 5.2915 18.7842C5.2915 18.8858 5.3731 18.9681 5.47297 18.9681Z" fill="#F0F0F0"/>
<path fill-rule="evenodd" clip-rule="evenodd" d="M5.47297 15.5726H14.4044C14.5047 15.5726 14.5859 15.4903 14.5859 15.3887C14.5859 15.2874 14.5047 15.2051 14.4044 15.2051H5.47297C5.3731 15.2051 5.2915 15.2874 5.2915 15.3887C5.2915 15.4903 5.3731 15.5726 5.47297 15.5726Z" fill="#F0F0F0"/>
<path fill-rule="evenodd" clip-rule="evenodd" d="M5.47297 20.0995H14.4044C14.5047 20.0995 14.5859 20.0171 14.5859 19.9156C14.5859 19.8143 14.5047 19.7319 14.4044 19.7319H5.47297C5.3731 19.7319 5.2915 19.8143 5.2915 19.9156C5.2915 20.0171 5.3731 20.0995 5.47297 20.0995Z" fill="#F0F0F0"/>
<path fill-rule="evenodd" clip-rule="evenodd" d="M5.47297 16.7045H14.4044C14.5047 16.7045 14.5859 16.6221 14.5859 16.5205C14.5859 16.4192 14.5047 16.3369 14.4044 16.3369H5.47297C5.3731 16.3369 5.2915 16.4192 5.2915 16.5205C5.2915 16.6221 5.3731 16.7045 5.47297 16.7045Z" fill="#F0F0F0"/>
<path fill-rule="evenodd" clip-rule="evenodd" d="M14.5861 13.1247C14.5861 13.0232 14.505 12.9409 14.4048 12.9409H5.4734C5.37323 12.9409 5.29199 13.0232 5.29199 13.1247V21.6132C5.29199 21.7147 5.37323 21.797 5.4734 21.797H14.4048C14.505 21.797 14.5861 21.7147 14.5861 21.6132V13.1247ZM14.2235 13.3085V21.4294H5.6547V13.3085H14.2235Z" fill="#F0F0F0"/>
<path fill-rule="evenodd" clip-rule="evenodd" d="M9.61951 11.1433V10.0004C9.61951 9.86379 9.51015 9.75293 9.37543 9.75293C9.2407 9.75293 9.13135 9.86379 9.13135 10.0004V11.1433C9.13135 11.2799 9.2407 11.3907 9.37543 11.3907C9.51015 11.3907 9.61951 11.2799 9.61951 11.1433Z" fill="black" fill-opacity="0.33"/>
<path fill-rule="evenodd" clip-rule="evenodd" d="M11.8746 11.1433V10.0004C11.8746 9.86379 11.7653 9.75293 11.6306 9.75293C11.4958 9.75293 11.3865 9.86379 11.3865 10.0004V11.1433C11.3865 11.2799 11.4958 11.3907 11.6306 11.3907C11.7653 11.3907 11.8746 11.2799 11.8746 11.1433Z" fill="black" fill-opacity="0.33"/>
<path fill-rule="evenodd" clip-rule="evenodd" d="M8.49256 11.1433V10.0004C8.49256 9.86379 8.3832 9.75293 8.24848 9.75293C8.11375 9.75293 8.00439 9.86379 8.00439 10.0004V11.1433C8.00439 11.2799 8.11375 11.3907 8.24848 11.3907C8.3832 11.3907 8.49256 11.2799 8.49256 11.1433Z" fill="black" fill-opacity="0.33"/>
<path fill-rule="evenodd" clip-rule="evenodd" d="M10.747 11.1433V10.0004C10.747 9.86379 10.6376 9.75293 10.5029 9.75293C10.3681 9.75293 10.2588 9.86379 10.2588 10.0004V11.1433C10.2588 11.2799 10.3681 11.3907 10.5029 11.3907C10.6376 11.3907 10.747 11.2799 10.747 11.1433Z" fill="black" fill-opacity="0.33"/>
<path fill-rule="evenodd" clip-rule="evenodd" d="M2.04746 5.49969L9.93973 4.0332L17.7229 5.49969V6.96618H2.04746V5.49969Z" fill="#3073BE"/>
<path fill-rule="evenodd" clip-rule="evenodd" d="M2.04758 5.49986L2.89038 5.34326V6.96635H2.04758V5.49986Z" fill="black" fill-opacity="0.18"/>
<path fill-rule="evenodd" clip-rule="evenodd" d="M9.93973 6.96618V4.0332L17.7229 5.49969V6.96618H9.93973Z" fill="white" fill-opacity="0.28"/>
<path fill-rule="evenodd" clip-rule="evenodd" d="M16.7342 6.96625V5.31348L17.7229 5.49976V6.96625H16.7342Z" fill="white" fill-opacity="0.28"/>
<path d="M17.7233 6.36719H2.04761V6.96633H17.7233V6.36719Z" fill="black" fill-opacity="0.18"/>
<path d="M2.53088 6.96631H9.93872V21.2665H2.53088V6.96631Z" fill="black" fill-opacity="0.08"/>
<path d="M2.53042 6.96631H3.19287V21.2665H2.53042V6.96631Z" fill="black" fill-opacity="0.08"/>
<path d="M2.533 6.96631H17.0002V7.81009H2.533V6.96631Z" fill="black" fill-opacity="0.18"/>
<path d="M16.3631 6.96631H17.0012V21.2665H16.3631V6.96631Z" fill="white" fill-opacity="0.28"/>
<path fill-rule="evenodd" clip-rule="evenodd" d="M1.55054 21.4675V17.8784C1.55054 17.7971 1.48546 17.731 1.40498 17.731C1.32451 17.731 1.25918 17.7971 1.25918 17.8784V21.4675C1.25918 21.5488 1.32451 21.6154 1.40498 21.6154C1.48546 21.6154 1.55054 21.5488 1.55054 21.4675Z" fill="#919191"/>
<path fill-rule="evenodd" clip-rule="evenodd" d="M1.40581 17.731C1.32534 17.731 1.26001 17.7972 1.26001 17.8788V21.4677C1.26001 21.5493 1.32534 21.6153 1.40581 21.6153V17.731Z" fill="black" fill-opacity="0.18"/>
<path fill-rule="evenodd" clip-rule="evenodd" d="M1.25903 18.7101C1.25903 18.7101 1.31731 18.7396 1.40472 18.7396C1.51861 18.7396 1.55039 18.7076 1.55039 18.7076V17.8786C1.55039 17.7971 1.48512 17.731 1.40472 17.731C1.32431 17.731 1.25903 17.7971 1.25903 17.8786V18.7101Z" fill="black" fill-opacity="0.28"/>
<path d="M1.39862 18.5481C1.81657 18.5481 2.15539 18.2046 2.15539 17.7809C2.15539 17.3572 1.81657 17.0137 1.39862 17.0137C0.980664 17.0137 0.641846 17.3572 0.641846 17.7809C0.641846 18.2046 0.980664 18.5481 1.39862 18.5481Z" fill="#F2AF0D"/>
<path fill-rule="evenodd" clip-rule="evenodd" d="M1.26855 17.0252C1.31119 17.0175 1.35483 17.0137 1.39923 17.0137C1.81697 17.0137 2.156 17.3574 2.156 17.7809C2.156 18.2044 1.81697 18.5481 1.39923 18.5481C1.35483 18.5481 1.31119 18.5442 1.26855 18.5366C1.62399 18.4739 1.89467 18.1591 1.89467 17.7809C1.89467 17.4026 1.62399 17.0878 1.26855 17.0252Z" fill="white" fill-opacity="0.5"/>
<path fill-rule="evenodd" clip-rule="evenodd" d="M31.1562 21.4661V15.7753C31.1562 15.6778 31.0772 15.5986 30.9795 15.5986C30.8817 15.5986 30.8024 15.6778 30.8024 15.7753V21.4661C30.8024 21.5637 30.8817 21.6434 30.9795 21.6434C31.0772 21.6434 31.1562 21.5637 31.1562 21.4661Z" fill="#823939"/>
<path d="M30.8024 18.8506H31.1562V19.6993H30.8024V18.8506Z" fill="black" fill-opacity="0.28"/>
<path fill-rule="evenodd" clip-rule="evenodd" d="M30.9795 21.6434V15.5986C30.8818 15.5986 30.8024 15.6778 30.8024 15.7753V21.4661C30.8024 21.5637 30.8818 21.6434 30.9795 21.6434Z" fill="black" fill-opacity="0.18"/>
<path fill-rule="evenodd" clip-rule="evenodd" d="M33.102 19.415H28.8589C28.8589 18.2436 29.8136 17.293 30.9804 17.293C32.1543 17.293 33.102 18.2436 33.102 19.415Z" fill="#38AD45"/>
<path fill-rule="evenodd" clip-rule="evenodd" d="M32.5997 17.7232H29.3503C29.3503 16.8262 30.0814 16.0981 30.975 16.0981C31.874 16.0981 32.5997 16.8262 32.5997 17.7232Z" fill="#38AD45"/>
<path fill-rule="evenodd" clip-rule="evenodd" d="M32.1921 16.3938H29.7605C29.7605 15.7225 30.3076 15.1777 30.9763 15.1777C31.6491 15.1777 32.1921 15.7225 32.1921 16.3938Z" fill="#38AD45"/>
<path fill-rule="evenodd" clip-rule="evenodd" d="M31.8265 15.3511H30.1326C30.1326 14.8834 30.5137 14.5039 30.9796 14.5039C31.4482 14.5039 31.8265 14.8834 31.8265 15.3511Z" fill="#38AD45"/>
<path fill-rule="evenodd" clip-rule="evenodd" d="M33.0958 19.4159H28.8528C28.8528 18.2446 29.8075 17.2939 30.9743 17.2939C32.1482 17.2939 33.0958 18.2446 33.0958 19.4159Z" fill="#38AD45"/>
<path fill-rule="evenodd" clip-rule="evenodd" d="M30.9743 17.2939V19.4159H28.8528C28.8528 18.2446 29.8075 17.2939 30.9743 17.2939Z" fill="black" fill-opacity="0.08"/>
<path fill-rule="evenodd" clip-rule="evenodd" d="M29.3398 18.0687C29.7292 17.5952 30.3191 17.293 30.979 17.293C31.6393 17.293 32.2292 17.5952 32.6185 18.0687H29.3398Z" fill="black" fill-opacity="0.18"/>
<path fill-rule="evenodd" clip-rule="evenodd" d="M32.6031 17.7212H29.3538C29.3538 16.8242 30.0849 16.0962 30.9784 16.0962C31.8774 16.0962 32.6031 16.8242 32.6031 17.7212Z" fill="#38AD45"/>
<path fill-rule="evenodd" clip-rule="evenodd" d="M30.9784 16.0962V17.7212H29.3538C29.3538 16.8242 30.0849 16.0962 30.9784 16.0962Z" fill="black" fill-opacity="0.08"/>
<path fill-rule="evenodd" clip-rule="evenodd" d="M29.7095 16.7081C30.0074 16.3355 30.4655 16.0962 30.9792 16.0962C31.4933 16.0962 31.9514 16.3355 32.2493 16.7081H29.7095Z" fill="black" fill-opacity="0.18"/>
<path fill-rule="evenodd" clip-rule="evenodd" d="M32.1965 16.3928H29.7649C29.7649 15.7216 30.312 15.1768 30.9807 15.1768C31.6535 15.1768 32.1965 15.7216 32.1965 16.3928Z" fill="#38AD45"/>
<path fill-rule="evenodd" clip-rule="evenodd" d="M30.9807 15.1768V16.3928H29.7649C29.7649 15.7216 30.312 15.1768 30.9807 15.1768Z" fill="black" fill-opacity="0.08"/>
<path fill-rule="evenodd" clip-rule="evenodd" d="M30.124 15.5287C30.3437 15.3113 30.6463 15.1768 30.9794 15.1768C31.3128 15.1768 31.6154 15.3113 31.8351 15.5287H30.124Z" fill="black" fill-opacity="0.18"/>
<path fill-rule="evenodd" clip-rule="evenodd" d="M31.8253 15.3496H30.1313C30.1313 14.882 30.5125 14.5024 30.9783 14.5024C31.447 14.5024 31.8253 14.882 31.8253 15.3496Z" fill="#38AD45"/>
<path fill-rule="evenodd" clip-rule="evenodd" d="M33.0826 19.1327C33.0947 19.2249 33.101 19.3192 33.101 19.415H28.8579C28.8579 19.3192 28.8646 19.2249 28.8767 19.1327H33.0826ZM30.9795 14.5039V15.3508H30.1327C30.1327 14.8836 30.5123 14.5039 30.9795 14.5039Z" fill="black" fill-opacity="0.08"/>
<path fill-rule="evenodd" clip-rule="evenodd" d="M33.9998 21.9642C33.9998 21.5752 33.8474 21.2022 33.576 20.9271C33.3047 20.652 32.9367 20.4976 32.553 20.4976C26.9897 20.4976 7.00866 20.4976 1.44658 20.4976C0.647893 20.4976 0.000488281 21.1539 0.000488281 21.9635C0.000488281 21.964 0.000488281 21.9642 0.000488281 21.9642H33.9998Z" fill="#666666"/>
<path fill-rule="evenodd" clip-rule="evenodd" d="M33.8615 21.3403H0.136721C0.0491921 21.5292 0 21.7404 0 21.9633C0 21.9637 0 21.964 0 21.964H33.9989C33.9989 21.7462 33.9511 21.5336 33.8615 21.3403Z" fill="black" fill-opacity="0.28"/>
<path fill-rule="evenodd" clip-rule="evenodd" d="M32.5518 20.4976C26.9886 20.4976 31.343 20.4976 31.343 20.4976C31.7268 20.4976 32.095 20.6519 32.3662 20.9273C32.6375 21.2023 32.7898 21.5752 32.7898 21.9642H33.9986C33.9986 21.5752 33.8463 21.2023 33.5747 20.9273C33.3034 20.6519 32.9356 20.4976 32.5518 20.4976Z" fill="white" fill-opacity="0.28"/>
<path fill-rule="evenodd" clip-rule="evenodd" d="M17.0001 21.9642V20.4976H1.44658C0.647892 20.4976 0.000488281 21.1539 0.000488281 21.9635C0.000488281 21.964 0.000488281 21.9642 0.000488281 21.9642H17.0001Z" fill="black" fill-opacity="0.28"/>
<path fill-rule="evenodd" clip-rule="evenodd" d="M2.41067 20.4976H1.44604C0.647426 20.4976 0 21.1539 0 21.9635C0 21.9639 0 21.9642 0 21.9642H0.964628V21.9635C0.964628 21.1539 1.61205 20.4976 2.41067 20.4976Z" fill="black" fill-opacity="0.28"/>
</svg>
