<svg width="34" height="22" viewBox="0 0 34 22" fill="none" xmlns="http://www.w3.org/2000/svg">
<path d="M10 17C12.2091 17 14 15.433 14 13.5C14 11.567 12.2091 10 10 10C7.79086 10 6 11.567 6 13.5C6 15.433 7.79086 17 10 17Z" fill="#3EBBDD"/>
<path d="M15.4062 3.4375H27.0938V9.625H15.4062V3.4375Z" fill="#FF8000"/>
<path d="M15.4062 3.4375H27.0938V4.8125H15.4062V3.4375Z" fill="#E57300"/>
<path d="M14.875 2.0625H27.625V4.125H14.875V2.0625Z" fill="#FF8000"/>
<path d="M22.8544 7.5625H19.6456C19.2259 7.56214 18.8236 7.45409 18.5268 7.26207C18.23 7.07004 18.0631 6.80969 18.0625 6.53813C18.0625 5.95959 18.7728 5.5 19.6456 5.5H22.8538C23.2736 5.50027 23.676 5.60829 23.9728 5.80033C24.2696 5.99238 24.4365 6.25278 24.437 6.52437C24.4375 7.10291 23.7272 7.5625 22.8544 7.5625ZM19.6456 6.1875C19.5075 6.1875 19.3751 6.22299 19.2775 6.28617C19.1799 6.34934 19.125 6.43503 19.125 6.52437C19.125 6.72375 19.3582 6.875 19.6456 6.875H22.8538C22.9919 6.875 23.1243 6.83951 23.222 6.77633C23.3196 6.71316 23.3745 6.62747 23.3745 6.53813C23.3745 6.33875 23.1413 6.1875 22.8538 6.1875H19.6456V6.1875Z" fill="#E57300"/>
<path d="M25 8H27.125V8.6875H25V8ZM11.7188 13.1562H9.0625V12.4688H11.7188C11.8596 12.4688 11.9948 12.4325 12.0944 12.3681C12.194 12.3036 12.25 12.2162 12.25 12.125C12.25 12.0338 12.194 11.9464 12.0944 11.8819C11.9948 11.8175 11.8596 11.7812 11.7188 11.7812H10.6562V11.4375C10.6562 11.3463 10.6003 11.2589 10.5007 11.1944C10.401 11.13 10.2659 11.0938 10.125 11.0938C9.9841 11.0938 9.84898 11.13 9.74935 11.1944C9.64972 11.2589 9.59375 11.3463 9.59375 11.4375V11.7812H8.53125C8.39035 11.7812 8.25523 11.8175 8.1556 11.8819C8.05597 11.9464 8 12.0338 8 12.125V13.5C8 13.5912 8.05597 13.6786 8.1556 13.7431C8.25523 13.8075 8.39035 13.8438 8.53125 13.8438H11.1875V14.5312H8.53125C8.39035 14.5312 8.25523 14.5675 8.1556 14.6319C8.05597 14.6964 8 14.7838 8 14.875C8 14.9662 8.05597 15.0536 8.1556 15.1181C8.25523 15.1825 8.39035 15.2188 8.53125 15.2188H9.59375V15.5625C9.59375 15.6537 9.64972 15.7411 9.74935 15.8056C9.84898 15.87 9.9841 15.9062 10.125 15.9062C10.2659 15.9062 10.401 15.87 10.5007 15.8056C10.6003 15.7411 10.6562 15.6537 10.6562 15.5625V15.2188H11.7188C11.8596 15.2188 11.9948 15.1825 12.0944 15.1181C12.194 15.0536 12.25 14.9662 12.25 14.875V13.5C12.25 13.4088 12.194 13.3214 12.0944 13.2569C11.9948 13.1925 11.8596 13.1562 11.7188 13.1562Z" fill="white"/>
<path d="M27.0938 19.25H1.59375C1.45285 19.25 1.31773 19.2862 1.2181 19.3507C1.11847 19.4151 1.0625 19.5026 1.0625 19.5938V20.9688C1.0625 21.0599 1.11847 21.1474 1.2181 21.2118C1.31773 21.2763 1.45285 21.3125 1.59375 21.3125H27.0938C27.2346 21.3125 27.3698 21.2763 27.4694 21.2118C27.569 21.1474 27.625 21.0599 27.625 20.9688V19.5938C27.625 19.5026 27.569 19.4151 27.4694 19.3507C27.3698 19.2862 27.2346 19.25 27.0938 19.25Z" fill="#4D4D4D"/>
<path d="M27.625 19.5938C28.2118 19.5938 28.6875 19.2859 28.6875 18.9062C28.6875 18.5266 28.2118 18.2188 27.625 18.2188C27.0382 18.2188 26.5625 18.5266 26.5625 18.9062C26.5625 19.2859 27.0382 19.5938 27.625 19.5938Z" fill="#3EBBDD"/>
<path d="M27.625 19.9375C26.7463 19.9375 26.0312 19.4748 26.0312 18.9062C26.0312 18.3377 26.7463 17.875 27.625 17.875C28.5037 17.875 29.2188 18.3377 29.2188 18.9062C29.2188 19.4748 28.5037 19.9375 27.625 19.9375ZM27.625 18.5625C27.4841 18.5625 27.349 18.5987 27.2493 18.6632C27.1497 18.7276 27.0938 18.8151 27.0938 18.9062C27.0938 18.9974 27.1497 19.0849 27.2493 19.1493C27.349 19.2138 27.4841 19.25 27.625 19.25C27.7659 19.25 27.901 19.2138 28.0007 19.1493C28.1003 19.0849 28.1562 18.9974 28.1562 18.9062C28.1562 18.8151 28.1003 18.7276 28.0007 18.6632C27.901 18.5987 27.7659 18.5625 27.625 18.5625Z" fill="#4D4D4D"/>
<path d="M28.1568 18.5624C28.0769 18.5624 27.9981 18.5508 27.9262 18.5284C27.8542 18.5061 27.791 18.4735 27.7411 18.4331C27.6913 18.3928 27.6562 18.3457 27.6384 18.2953C27.6206 18.245 27.6205 18.1927 27.6383 18.1423L31.8883 6.11105C31.9229 6.02447 32.0084 5.95004 32.1265 5.90357C32.2446 5.85709 32.386 5.84223 32.5208 5.86214C32.6555 5.88205 32.773 5.93516 32.8482 6.01019C32.9234 6.08523 32.9505 6.17628 32.9237 6.26402L28.6737 18.2953C28.647 18.3711 28.5814 18.4388 28.4875 18.4874C28.3936 18.5359 28.2769 18.5623 28.1568 18.5624Z" fill="#4D4D4D"/>
<path d="M18.5938 17.875C18.4529 17.875 18.3177 17.8388 18.2181 17.7743C18.1185 17.7099 18.0625 17.6224 18.0625 17.5312V16.1562C18.0625 16.0651 18.1185 15.9776 18.2181 15.9132C18.3177 15.8487 18.4529 15.8125 18.5938 15.8125C18.7346 15.8125 18.8698 15.8487 18.9694 15.9132C19.069 15.9776 19.125 16.0651 19.125 16.1562V17.5312C19.125 17.6224 19.069 17.7099 18.9694 17.7743C18.8698 17.8388 18.7346 17.875 18.5938 17.875Z" fill="#3EBBDD"/>
<path d="M19.6562 17.1875H17.5312C17.3904 17.1875 17.2552 17.1513 17.1556 17.0868C17.056 17.0224 17 16.9349 17 16.8438C17 16.7526 17.056 16.6651 17.1556 16.6007C17.2552 16.5362 17.3904 16.5 17.5312 16.5H19.6562C19.7971 16.5 19.9323 16.5362 20.0319 16.6007C20.1315 16.6651 20.1875 16.7526 20.1875 16.8438C20.1875 16.9349 20.1315 17.0224 20.0319 17.0868C19.9323 17.1513 19.7971 17.1875 19.6562 17.1875Z" fill="#3EBBDD"/>
<path d="M9.5625 2.75C9.4216 2.75 9.28648 2.71378 9.18685 2.64932C9.08722 2.58485 9.03125 2.49742 9.03125 2.40625V1.03125C9.03125 0.940082 9.08722 0.852648 9.18685 0.788182C9.28648 0.723716 9.4216 0.6875 9.5625 0.6875C9.7034 0.6875 9.83852 0.723716 9.93815 0.788182C10.0378 0.852648 10.0938 0.940082 10.0938 1.03125V2.40625C10.0938 2.49742 10.0378 2.58485 9.93815 2.64932C9.83852 2.71378 9.7034 2.75 9.5625 2.75Z" fill="#4D4D4D"/>
<path d="M10.625 2.0625H8.5C8.3591 2.0625 8.22398 2.02628 8.12435 1.96182C8.02472 1.89735 7.96875 1.80992 7.96875 1.71875C7.96875 1.62758 8.02472 1.54015 8.12435 1.47568C8.22398 1.41122 8.3591 1.375 8.5 1.375H10.625C10.7659 1.375 10.901 1.41122 11.0007 1.47568C11.1003 1.54015 11.1562 1.62758 11.1562 1.71875C11.1562 1.80992 11.1003 1.89735 11.0007 1.96182C10.901 2.02628 10.7659 2.0625 10.625 2.0625Z" fill="#4D4D4D"/>
<path d="M24.4375 13.0625C23.5588 13.0625 22.8438 12.5998 22.8438 12.0312C22.8438 11.4627 23.5588 11 24.4375 11C25.3162 11 26.0312 11.4627 26.0312 12.0312C26.0312 12.5998 25.3162 13.0625 24.4375 13.0625ZM24.4375 11.6875C24.2966 11.6875 24.1615 11.7237 24.0618 11.7882C23.9622 11.8526 23.9062 11.9401 23.9062 12.0312C23.9062 12.1224 23.9622 12.2099 24.0618 12.2743C24.1615 12.3388 24.2966 12.375 24.4375 12.375C24.5784 12.375 24.7135 12.3388 24.8132 12.2743C24.9128 12.2099 24.9688 12.1224 24.9688 12.0312C24.9688 11.9401 24.9128 11.8526 24.8132 11.7882C24.7135 11.7237 24.5784 11.6875 24.4375 11.6875Z" fill="#4D4D4D"/>
<path d="M8.5 6.53125C7.62131 6.53125 6.90625 6.06856 6.90625 5.5C6.90625 4.93144 7.62131 4.46875 8.5 4.46875C9.37869 4.46875 10.0938 4.93144 10.0938 5.5C10.0938 6.06856 9.37869 6.53125 8.5 6.53125ZM8.5 5.15625C8.3591 5.15625 8.22398 5.19247 8.12435 5.25693C8.02472 5.3214 7.96875 5.40883 7.96875 5.5C7.96875 5.59117 8.02472 5.6786 8.12435 5.74307C8.22398 5.80753 8.3591 5.84375 8.5 5.84375C8.6409 5.84375 8.77602 5.80753 8.87565 5.74307C8.97528 5.6786 9.03125 5.59117 9.03125 5.5C9.03125 5.40883 8.97528 5.3214 8.87565 5.25693C8.77602 5.19247 8.6409 5.15625 8.5 5.15625Z" fill="#3EBBDD"/>
<path d="M4.25 7.90625H5.3125V8.59375H4.25V7.90625ZM23.9062 15.4688H24.9688V16.1562H23.9062V15.4688ZM17.5312 12.375H18.5938V13.0625H17.5312V12.375ZM1.59375 1.71875H2.65625V2.40625H1.59375V1.71875Z" fill="#CCCCCC"/>
</svg>
