<svg width="24" height="24" viewBox="0 0 24 24" fill="none" xmlns="http://www.w3.org/2000/svg">
<path d="M12 0C8.8174 0 5.76515 1.2577 3.51472 3.49641C1.26428 5.73512 0 8.77147 0 11.9375C0 15.1035 1.26428 18.1399 3.51472 20.3786C5.76515 22.6173 8.8174 23.875 12 23.875C15.1826 23.875 18.2348 22.6173 20.4853 20.3786C22.7357 18.1399 24 15.1035 24 11.9375C24 8.77147 22.7357 5.73512 20.4853 3.49641C18.2348 1.2577 15.1826 0 12 0V0Z" fill="#039BE5"/>
<path d="M12.7041 15.2266H15.8096L16.2971 12.0883H12.7035V10.3731C12.7035 9.06941 13.1317 7.91335 14.3576 7.91335H16.3275V5.17464C15.9814 5.12815 15.2494 5.02637 13.8662 5.02637C10.978 5.02637 9.28473 6.54369 9.28473 10.0005V12.0883H6.31567V15.2266H9.28473V23.8524C9.87273 23.9404 10.4683 24.0001 11.0797 24.0001C11.6323 24.0001 12.1717 23.9498 12.7041 23.8782V15.2266Z" fill="white"/>
</svg>
