<svg width="25" height="24" viewBox="0 0 25 24" fill="none" xmlns="http://www.w3.org/2000/svg">
<path d="M23.1758 12.2331C23.1758 11.3698 23.1044 10.7398 22.9497 10.0864H12.8901V13.983H18.7948C18.6758 14.9514 18.033 16.4097 16.6044 17.3897L16.5844 17.5202L19.765 19.9349L19.9854 19.9564C22.0091 18.1247 23.1758 15.4297 23.1758 12.2331" fill="#4285F4"/>
<path d="M12.8895 22.5001C15.7823 22.5001 18.2109 21.5667 19.9847 19.9567L16.6038 17.39C15.699 18.0083 14.4847 18.44 12.8895 18.44C10.0562 18.44 7.65149 16.6083 6.79427 14.0767L6.66862 14.0871L3.36137 16.5955L3.31812 16.7133C5.07999 20.1433 8.69904 22.5001 12.8895 22.5001Z" fill="#34A853"/>
<path d="M6.79478 14.0767C6.56859 13.4234 6.43769 12.7233 6.43769 12C6.43769 11.2767 6.56859 10.5767 6.78288 9.92337L6.77689 9.78423L3.42817 7.2356L3.31861 7.28667C2.59245 8.71002 2.17578 10.3084 2.17578 12C2.17578 13.6917 2.59245 15.29 3.31861 16.7133L6.79478 14.0767" fill="#FBBC05"/>
<path d="M12.8896 5.55997C14.9015 5.55997 16.2586 6.41163 17.0324 7.12335L20.0562 4.23C18.1991 2.53834 15.7824 1.5 12.8896 1.5C8.69907 1.5 5.08 3.85665 3.31812 7.28662L6.78239 9.92332C7.65152 7.39166 10.0563 5.55997 12.8896 5.55997" fill="#EB4335"/>
</svg>
