<svg width="34" height="22" viewBox="0 0 34 22" fill="none" xmlns="http://www.w3.org/2000/svg">
<path d="M5.65497 6.65856L7.55997 6.01689L7.09497 5.29189L6.14997 4.67523L4.70997 4.56689C4.69497 4.90023 4.55997 5.45856 3.67497 5.70023C3.47997 5.74189 5.65497 6.65856 5.65497 6.65856Z" fill="#CE7F5C"/>
<path opacity="0.2" d="M3.55507 20.3086C2.50506 20.1086 -0.194936 18.8752 2.92506 18.3919C5.68507 17.9586 6.46507 16.9002 9.72007 17.9086C11.3251 18.4086 10.8151 19.0669 8.13007 19.4252C6.33007 19.6669 6.00007 20.7752 3.55507 20.3086V20.3086Z" fill="black"/>
<path d="M5.26511 17.8583C5.22011 18.0499 5.44511 18.2249 6.00011 18.3333C6.61511 18.4583 7.36511 18.6916 7.72511 18.8083C8.32511 18.9999 9.03011 18.9999 9.51011 18.8916C9.87011 18.8083 9.91511 18.6833 9.85511 18.4749C9.79511 18.2583 9.40511 18.2499 8.77511 18.1166C8.20511 17.9916 7.26011 17.5166 7.26011 17.5166L5.26511 17.8583V17.8583Z" fill="#262626"/>
<path d="M5.45996 17.9498C5.90996 18.0331 6.41996 18.1165 6.85496 18.2581C7.30496 18.4081 8.39996 18.7831 9.05996 18.7081C9.53996 18.6498 9.74996 18.5498 9.71996 18.4248C9.68996 18.2998 9.10496 18.2248 8.65496 18.1165C8.35496 18.0498 7.30496 17.5498 7.30496 17.5498L5.45996 17.9498V17.9498Z" fill="white"/>
<path d="M2.38501 19.1334C2.76001 19.4917 2.95501 19.9667 3.63001 20.175C4.30501 20.3834 4.92001 20.3334 5.47501 20.2C5.80501 20.1167 5.68501 19.875 5.61001 19.7834C5.53501 19.6917 5.25001 19.5917 4.89001 19.3834C4.44001 19.125 4.21501 18.7417 4.21501 18.7417L2.38501 19.1334V19.1334Z" fill="#262626"/>
<path d="M2.72998 19.0916C2.72998 19.0916 3.11998 19.7499 3.68998 19.9166C4.28998 20.0916 4.67998 20.0499 5.18998 19.9666C5.69998 19.8833 5.66998 19.8166 5.29498 19.6416C4.90498 19.4583 4.43998 19.1499 4.42498 19.0333C4.40998 18.9166 2.72998 19.0916 2.72998 19.0916V19.0916Z" fill="white"/>
<path d="M8.29497 10.3335C8.56497 10.6585 8.93998 11.3085 8.90998 12.3502C8.87998 13.3918 8.89498 13.7752 8.90998 14.0418C8.92498 14.3168 8.78997 14.5002 8.50497 14.9752C8.26497 15.4002 7.51497 16.9418 7.55997 17.2585C7.57497 17.3335 7.85997 17.3918 7.91997 17.5585C7.97997 17.7252 7.99497 17.7835 7.63497 17.8918C7.27497 18.0002 6.22497 18.3252 5.47497 18.1585C5.15997 18.0918 5.02497 18.0752 5.05497 17.7085C5.08497 17.3418 5.14497 16.6335 5.30997 15.9168C5.47497 15.2002 5.99997 14.6252 5.92497 14.1502C5.84997 13.6752 4.57497 12.3585 4.69497 11.6835C4.81497 11.0085 4.84497 10.8252 4.84497 10.8252L8.29497 10.3335V10.3335Z" fill="#06547A"/>
<path opacity="0.2" d="M8.29497 10.3335C8.56497 10.6585 8.93998 11.3085 8.90998 12.3502C8.87998 13.3918 8.89498 13.7752 8.90998 14.0418C8.92498 14.3168 8.78997 14.5002 8.50497 14.9752C8.26497 15.4002 7.51497 16.9418 7.55997 17.2585C7.57497 17.3335 7.85997 17.3918 7.91997 17.5585C7.97997 17.7252 7.99497 17.7835 7.63497 17.8918C7.27497 18.0002 6.22497 18.3252 5.47497 18.1585C5.15997 18.0918 5.02497 18.0752 5.05497 17.7085C5.08497 17.3418 5.14497 16.6335 5.30997 15.9168C5.47497 15.2002 5.99997 14.6252 5.92497 14.1502C5.84997 13.6752 4.57497 12.3585 4.69497 11.6835C4.81497 11.0085 4.84497 10.8252 4.84497 10.8252L8.29497 10.3335V10.3335Z" fill="black"/>
<path d="M6.80992 11.1084C6.80992 11.1084 7.10992 11.9584 6.92992 12.2334C6.74992 12.5084 6.35992 12.525 6.32992 12.7917C6.29992 13.05 6.23992 13.8 6.05992 14.2334C5.87992 14.6667 5.53492 15.5834 5.30992 15.9167C5.08492 16.25 4.90492 17.1334 4.72492 17.6084C4.58992 18 4.40992 18.3167 4.48492 18.6084C4.55992 18.9 4.64992 19.0417 4.58992 19.0667C4.52992 19.0917 3.92992 19.1 3.49492 19.2C3.05992 19.3 2.54992 19.2834 2.27992 19.1584C2.00992 19.0334 1.87492 18.7834 2.02492 18.5834C2.17492 18.3834 2.21992 18.2917 2.05492 17.9667C1.88992 17.6417 2.15992 17.5334 2.24992 17.3417C2.33992 17.15 2.18992 16.8834 2.35492 16.5C2.45992 16.2167 2.95492 15.6667 2.93992 15.2C2.92492 14.7334 2.44492 12.9334 2.57992 12.175C2.72992 11.4167 3.07492 10.9917 3.07492 10.9917L6.80992 11.1084V11.1084Z" fill="#06547A"/>
<path d="M8.7449 6.0918C8.7449 6.0918 8.1599 8.0168 8.2049 8.5418C8.2499 9.0668 8.3249 10.2585 8.3249 10.2585L6.8699 9.7918C6.8699 9.7918 6.6449 8.73346 6.7199 8.45013C6.7949 8.1668 7.5449 7.0918 7.5449 7.0918L8.7449 6.0918V6.0918Z" fill="#FBD7C7"/>
<path d="M6.70488 5.2583C6.70488 5.2583 7.88988 5.29163 8.42988 5.61663C8.96988 5.94163 8.72989 6.1583 8.60989 6.31663C8.48989 6.47497 8.56488 6.56663 8.56488 6.86663C8.56488 7.16663 8.35488 7.69163 8.09988 7.9083C7.84488 8.12497 7.99489 8.32497 8.00989 8.56663C8.02489 8.8083 8.15988 9.0583 8.18988 9.44163C8.21988 9.82497 8.44488 10.4916 8.48988 10.5833C8.53488 10.6833 8.08488 10.95 6.82488 11.2C5.81988 11.3916 3.31488 11.3166 2.96988 11C2.62488 10.6833 3.31488 10.425 3.26988 10.0166C3.22488 9.6083 2.45988 8.26663 2.45988 8.26663C2.45988 8.26663 1.67988 7.27497 1.64988 7.07497C1.60488 6.87497 1.60488 6.3333 2.05488 6.1333C2.50488 5.9333 3.86988 5.59997 3.86988 5.59997C3.86988 5.59997 4.85988 6.51663 6.08988 6.34163C7.46988 6.1583 6.70488 5.2583 6.70488 5.2583V5.2583Z" fill="#E5E5E5"/>
<path d="M3.86989 11.7668C3.89989 11.6918 4.00489 11.6668 4.00489 11.5418C3.98989 11.4251 4.01989 11.3168 3.91489 11.2501C3.80989 11.1835 3.67489 11.1918 3.52489 11.0751C3.37489 10.9585 3.07489 10.4751 2.84989 9.93346C2.63989 9.39179 2.32489 8.99179 2.29489 8.95846C2.24989 8.91679 2.59489 8.64179 2.95489 8.23346C3.26989 7.86679 3.47989 7.54179 3.74989 7.31679C3.38989 7.33346 2.65489 7.35012 2.32489 7.30012C2.06989 7.25846 1.81489 7.17512 1.64989 7.11679C1.48489 7.69179 1.07989 8.36679 1.00489 8.50012C0.929894 8.65012 0.749894 8.90846 1.04989 9.37512C1.34989 9.84179 2.39989 10.9585 2.38489 11.1501C2.36989 11.3418 2.29489 11.8001 2.30989 11.9501C2.32489 12.1001 2.57989 12.0918 2.69989 12.1585C2.81989 12.2251 3.08989 12.2168 3.13489 12.3001C3.17989 12.3835 3.40489 12.3835 3.50989 12.4335C3.61489 12.4835 3.83989 12.5335 3.94489 12.4918C4.04989 12.4501 3.98989 12.3418 3.91489 12.2751C3.85489 12.2085 3.83989 11.8335 3.86989 11.7668V11.7668ZM5.60989 3.06679C4.79989 3.09179 4.34989 3.35846 4.31989 3.65846C4.28989 3.95846 4.31989 4.17512 4.31989 4.17512C4.31989 4.17512 4.16989 4.14179 4.12489 4.24179C4.07989 4.35012 4.22989 4.62512 4.49989 4.75846C4.76989 4.89179 4.90489 5.15012 5.21989 5.33346C5.53489 5.52512 6.22489 5.78346 6.70489 5.75012C7.18489 5.71679 7.55989 4.70846 7.52989 4.38346C7.49989 4.05846 7.52989 3.00846 5.60989 3.06679V3.06679Z" fill="#B67253"/>
<path d="M5.61004 3.04146C4.80004 3.06646 4.35004 3.34146 4.29004 3.65813C4.24504 3.89146 4.27504 4.08313 4.30504 4.16646C4.39504 4.19146 4.54504 4.21646 4.65004 4.30813C4.80004 4.4498 4.80004 4.50813 4.80004 4.50813L5.01004 4.46646C5.01004 4.46646 5.23504 3.84146 5.56504 3.7748C5.89504 3.70813 6.18004 3.93313 6.61504 3.88313C7.05004 3.83313 6.99004 3.64146 7.17004 3.63313C7.20004 3.63313 7.26004 3.64146 7.32004 3.65813C7.11004 3.3248 6.64504 3.01646 5.61004 3.04146V3.04146Z" fill="#121212"/>
<path opacity="0.2" d="M27.49 21.7983C28.4525 21.7799 28.6975 21.5599 28.925 21.1291C29.17 20.6983 28.855 20.6066 29.4325 20.3866C30.01 20.1666 30.465 19.9466 30.3075 19.6166C30.01 18.9841 28.7325 18.2324 27.525 18.2324C26.3175 18.2324 24.06 19.1674 23.99 19.2591C23.92 19.3508 23.395 19.4699 23.92 19.8458C24.76 20.4416 25.39 21.8258 27.49 21.7983Z" fill="black"/>
<path d="M24.865 18.7735C24.865 18.7735 24.445 18.9844 24.1125 19.1127C23.78 19.241 23.7625 19.4885 23.78 19.571C23.7975 19.6535 24.1475 19.8735 24.7425 19.8185C25.3375 19.7635 25.7925 19.4244 26.195 19.2319C26.5975 19.0302 26.5975 19.0485 26.895 19.021C27.1925 18.9935 26.895 18.636 26.4925 18.6269C26.09 18.6177 25.3025 18.416 25.3025 18.416C25.3025 18.416 25.04 18.6727 24.865 18.7735V18.7735Z" fill="white"/>
<path d="M24.865 18.7735C24.865 18.7735 24.445 18.9844 24.1125 19.1127C23.78 19.241 23.7625 19.4885 23.78 19.571C23.7975 19.6535 24.1475 19.8735 24.7425 19.8185C25.3375 19.7635 25.7925 19.4244 26.195 19.2319C26.5975 19.0302 26.5975 19.0485 26.895 19.021C27.1925 18.9935 26.895 18.636 26.4925 18.6269C26.09 18.6177 25.3025 18.416 25.3025 18.416C25.3025 18.416 25.04 18.6727 24.865 18.7735V18.7735Z" fill="white"/>
<path d="M26.1951 19.2408C26.5976 19.0391 26.5976 19.0575 26.8951 19.03C26.9301 19.03 26.9651 19.0208 26.9826 19.0025L25.8276 18.8833C25.8276 18.8833 25.8801 19.1216 25.5126 19.3325C25.1626 19.5433 24.9526 19.6625 24.5151 19.6625C24.2001 19.6625 23.9726 19.6258 23.7976 19.5158V19.58C23.8151 19.6716 24.1651 19.8825 24.7601 19.8275C25.3551 19.7725 25.7926 19.4425 26.1951 19.2408V19.2408Z" fill="#262626"/>
<path d="M24.445 10.9907C24.445 10.9907 23.85 11.8524 23.9025 12.8607C23.955 13.9149 24.1825 14.5749 24.3225 14.8499C24.515 15.2624 24.9175 15.3907 25.005 16.2891C25.0925 17.1874 25.11 18.1041 24.97 18.3699C24.83 18.6357 24.4975 18.7366 24.55 18.8007C24.6025 18.8649 25.215 18.7641 25.5125 18.9107C25.81 19.0574 26.3 19.1582 26.545 19.1582C26.79 19.1674 26.895 19.1582 26.895 19.1582L26.2475 11.9899L24.445 10.9907V10.9907Z" fill="#CC291F"/>
<path opacity="0.2" d="M24.445 10.9907C24.445 10.9907 23.85 11.8524 23.9025 12.8607C23.955 13.9149 24.1825 14.5749 24.3225 14.8499C24.515 15.2624 24.9175 15.3907 25.005 16.2891C25.0925 17.1874 25.11 18.1041 24.97 18.3699C24.83 18.6357 24.4975 18.7366 24.55 18.8007C24.6025 18.8649 25.215 18.7641 25.5125 18.9107C25.81 19.0574 26.3 19.1582 26.545 19.1582C26.79 19.1674 26.895 19.1582 26.895 19.1582L26.2475 11.9899L24.445 10.9907V10.9907Z" fill="black"/>
<path d="M27.2975 20.7076C27.2975 20.7076 27 21.1201 27 21.2026C27 21.2851 26.965 21.5601 27.07 21.6243C27.1575 21.6793 27.63 21.7618 27.9975 21.7343C28.3825 21.7068 28.75 21.5143 28.785 21.4409C28.82 21.3584 28.7675 20.8634 28.75 20.7901C28.7325 20.7168 28.6625 20.5518 28.6625 20.5518L27.2975 20.7076V20.7076Z" fill="white"/>
<path d="M28.6801 20.5425L28.4351 20.57C28.5051 20.7441 28.5926 21.1475 28.4876 21.3125C28.3476 21.505 27.9626 21.56 27.6301 21.56C27.4376 21.56 27.1051 21.505 27.0176 21.3766C27.0176 21.4775 27.0351 21.5875 27.0876 21.6241C27.1751 21.6791 27.6476 21.7616 28.0151 21.7341C28.4001 21.7066 28.7676 21.5141 28.8026 21.4408C28.8376 21.3583 28.7851 20.8633 28.7676 20.79C28.7501 20.7166 28.6801 20.5425 28.6801 20.5425V20.5425Z" fill="#262626"/>
<path d="M25.9149 12.0726C25.9149 12.0726 25.3899 12.7235 25.3024 13.6585C25.2149 14.5935 25.4249 15.2168 25.4599 15.4276C25.4774 15.6385 25.5474 16.2893 25.7749 16.5368C26.0024 16.7843 26.4224 17.261 26.5799 17.8568C26.7374 18.4526 26.8074 19.5435 26.8249 19.8185C26.8424 20.1851 26.7374 20.4876 26.8599 20.6618C26.9824 20.836 27.3849 20.6251 27.8224 20.6893C28.2599 20.7443 28.9424 20.8176 29.0649 20.781C29.1874 20.7443 28.9774 20.0935 28.9949 19.7176C29.0124 19.3418 28.9599 17.9026 28.8024 17.2976C28.6624 16.6926 27.8224 16.1243 27.9624 15.5101C28.1024 14.896 28.9074 13.6035 29.0999 13.2185C29.2924 12.8426 29.3449 12.2835 29.2399 11.7793C29.1524 11.266 25.9149 12.0726 25.9149 12.0726V12.0726Z" fill="#CC291F"/>
<path d="M24.4449 10.5234C24.4449 10.5234 23.6924 10.8076 23.4124 10.9909C23.1324 11.1743 22.9924 11.2568 22.9924 11.4218C22.9924 11.5868 23.1324 11.6876 23.2724 11.6693C23.4124 11.6509 23.2724 11.4218 23.2724 11.4218L23.4124 11.2751C23.4124 11.2751 23.2724 11.4034 23.3424 11.4584C23.4124 11.5043 23.7274 11.6784 23.8149 11.6418C23.9199 11.6051 23.8849 11.5318 23.8849 11.5318C23.8849 11.5318 23.6224 11.4401 23.6749 11.3851C23.7274 11.3301 23.8149 11.3118 23.8149 11.3118C23.8149 11.3118 23.7624 11.4768 23.8149 11.5318C23.8674 11.5776 24.0949 11.5684 24.0949 11.5684L24.5149 11.0643L24.4449 10.5234V10.5234Z" fill="#FBD7C7"/>
<path d="M27.84 6.5726C27.035 6.4901 25.5125 6.42594 24.9525 6.7926C24.3925 7.15927 24.5325 7.2601 24.5325 7.44344C24.5325 7.62677 24.27 7.92927 24.1125 8.13094C23.955 8.3326 23.71 8.67177 23.9725 8.8826C24.235 9.1026 24.725 9.20344 24.725 9.20344C24.725 9.20344 24.585 10.0559 24.4275 10.3859C24.27 10.7068 24.0775 11.2843 24.0075 11.4676C23.9375 11.6509 24.2875 12.1918 24.97 12.3293C25.6525 12.4759 27.21 12.5401 28.1375 12.1826C29.065 11.8251 29.24 11.6051 29.24 11.6051C29.24 11.6051 28.9075 10.8993 28.96 10.6334C29.0125 10.3676 29.87 9.0201 29.87 9.0201L30.5 7.93844L30.71 7.8651C30.71 7.8651 30.7625 7.62677 30.5 7.3976C30.2375 7.15927 29.8 6.92094 29.1875 6.8201C28.575 6.71927 28.54 6.64594 27.84 6.5726Z" fill="#FFCC00"/>
<path d="M25.985 6.74647C25.985 6.74647 24.7775 7.25064 25.565 7.68147C26.3525 8.11231 27.8925 7.29647 28.1725 6.95731C28.47 6.63647 26.93 6.26064 25.985 6.74647Z" fill="#FBD7C7"/>
<path opacity="0.2" d="M23.9024 8.55273C23.9024 8.55273 23.8849 8.9469 25.8274 9.14857C28.7149 9.45107 29.2924 8.88273 29.2924 8.88273C29.2924 8.88273 28.7499 9.67107 25.9324 9.3869C23.4824 9.1394 23.9024 8.55273 23.9024 8.55273V8.55273Z" fill="#262626"/>
<path d="M27.5076 4.17084C26.0901 4.12501 25.4076 4.44584 25.1451 4.95918C24.8826 5.45418 25.8451 6.36168 24.8301 6.60001C24.8476 6.80168 25.7226 7.01251 26.1076 6.79251C26.4926 6.58168 26.6151 6.57251 26.6151 6.57251L27.5076 4.17084V4.17084Z" fill="#825012"/>
<path d="M25.6525 5.09669C25.39 5.38085 25.32 6.52669 25.7575 6.71002C26.195 6.89335 27.0875 6.59085 27.945 6.38919C28.8025 6.18752 28.9075 4.64752 27.6125 4.62919C26.3175 4.61085 25.9325 4.79419 25.6525 5.09669Z" fill="#FBD7C7"/>
<path d="M27.2451 4.18911C26.6676 4.26244 26.0026 4.66577 26.1251 5.10577C26.3001 5.67411 28.4351 6.78327 26.9301 7.14077C27.1751 7.56244 28.5926 7.53494 29.3801 7.32411C30.1326 7.11327 30.2026 6.91161 30.1851 6.83827C30.1676 6.76494 29.5201 6.38911 29.5201 5.83911C29.5026 5.27994 29.4501 3.90494 27.2451 4.18911V4.18911Z" fill="#825012"/>
<path d="M28.855 8.14931C28.855 8.14931 29.345 8.14931 29.695 8.12181C30.045 8.09431 30.5175 7.93848 30.5175 7.93848C30.5175 7.93848 30.5525 8.36014 30.6575 8.60764C30.7625 8.85514 30.9375 9.56098 31.0075 9.66181C31.0775 9.76264 31.34 9.84514 31.0075 10.2026C30.675 10.5601 29.31 11.6601 29.065 11.9535C28.82 12.2468 28.8375 12.5218 28.715 12.6043C28.5925 12.6868 28.2775 12.7601 28.2425 12.751C28.19 12.7418 28.12 12.7418 28.12 12.7418C28.12 12.7418 28.05 12.7785 27.9275 12.7785C27.805 12.7785 27.77 12.7418 27.77 12.7418C27.77 12.7418 27.6825 12.8151 27.49 12.806C27.2975 12.7968 27.315 12.7326 27.315 12.7326C27.315 12.7326 27.035 12.806 26.895 12.7876C26.755 12.7693 26.685 12.696 26.7725 12.6685C26.86 12.641 27.0525 12.6501 27.1925 12.586C27.3325 12.5218 27.56 12.3293 27.56 12.3293C27.56 12.3293 27.5075 12.311 27.525 12.201C27.525 12.091 27.5075 11.9168 27.7 11.8618C27.91 11.8068 28.155 11.8068 28.295 11.7151C28.7325 11.4401 28.855 10.9635 29.24 10.551C29.6075 10.1385 29.87 9.98264 29.87 9.94598C29.87 9.90931 29.38 9.33181 29.205 9.01098C29.0125 8.66264 28.855 8.14931 28.855 8.14931V8.14931Z" fill="#FBD7C7"/>
<g clip-path="url(#clip0_445_18882)">
<path d="M16.5522 6.50293C16.5409 6.93466 16.394 7.41029 16.2244 7.77616C16.0548 8.14203 16.1113 8.5518 16.1679 8.63229C16.2244 8.70547 16.3714 8.97621 16.394 9.03475C16.4279 9.09329 16.5749 9.09329 16.5975 8.97621C16.6314 8.85913 16.5522 8.61766 16.6201 8.54448C16.6879 8.47131 16.8801 8.53717 16.9253 8.37618C16.9705 8.2152 16.8575 7.95177 16.914 7.82738C16.9705 7.70298 17.2419 7.4176 17.2306 7.22003C17.2193 7.02247 17.2419 6.54683 17.2419 6.54683L16.5522 6.50293V6.50293Z" fill="#FBD7C7"/>
<path opacity="0.2" d="M22.0355 17.5374C25.0653 16.5789 22.1485 16.2349 20.4414 15.6203C18.1012 14.7715 17.355 14.4788 15.6027 15.1739C13.6808 15.9422 15.6253 16.4764 17.4115 17.0179C19.4578 17.6399 20.2379 18.1082 22.0355 17.5374V17.5374Z" fill="black"/>
<path d="M16.6653 14.8667C16.4279 15.0277 16.0887 15.2618 15.7496 15.3716C15.4104 15.4887 15.0939 15.6497 15.1504 15.8106C15.2069 15.9643 15.58 16.1472 16.2922 16.0302C16.7105 15.9643 16.8914 15.7082 17.1741 15.657C17.4567 15.6058 17.8976 15.496 17.9315 15.3936C17.9654 15.2911 17.9654 15.013 17.9654 15.013L16.6653 14.8667V14.8667ZM20.9953 16.2863C20.8822 16.4619 20.7013 16.696 20.3961 16.879C20.1022 17.0619 19.8647 17.3327 20.0343 17.4717C20.2039 17.6107 20.9501 17.6473 21.3118 17.5156C21.6736 17.3839 22.4424 16.9595 22.4876 16.8717C22.5441 16.7839 22.4763 16.418 22.4763 16.418L20.9953 16.2863V16.2863Z" fill="#762C07"/>
<path opacity="0.5" d="M17.9429 15.3935C17.9542 15.3642 17.9542 15.3276 17.9655 15.2837C17.8185 15.3642 17.4793 15.4666 17.1741 15.5252C16.7897 15.591 16.5297 15.8764 16.1227 15.9569C15.7609 16.0227 15.2296 15.9203 15.173 15.7154C15.1504 15.752 15.1504 15.7813 15.1617 15.8179C15.2182 15.9715 15.5913 16.1545 16.3036 16.0374C16.7219 15.9715 16.9028 15.7154 17.1854 15.6642C17.468 15.613 17.9089 15.4959 17.9429 15.3935V15.3935ZM22.4989 16.8789C22.5215 16.8496 22.5215 16.7911 22.5215 16.7179C22.3972 16.8277 22.1259 16.9813 21.9111 17.1057C21.6736 17.2594 21.2893 17.4716 20.837 17.5082C20.4753 17.5374 20.1248 17.4935 19.9891 17.3252C19.9778 17.3838 19.9891 17.435 20.0344 17.4716C20.2039 17.6106 20.9501 17.6472 21.3119 17.5155C21.6849 17.3838 22.4424 16.9594 22.4989 16.8789V16.8789Z" fill="black"/>
<path d="M16.767 8.13428C16.767 8.13428 16.4278 8.82943 16.3148 9.8246C16.2017 10.8198 16.3826 12.4223 16.3826 13.2199C16.3826 14.0175 16.507 14.6248 16.4278 14.7785C16.3487 14.9321 16.2921 15.0199 16.4278 15.0199C16.5635 15.0199 17.0948 15.1736 17.4114 15.2175C17.7279 15.2614 17.988 15.2907 18.0558 15.1517C18.1236 15.0126 18.395 13.4248 18.361 12.8833C18.3271 12.3418 18.3837 11.954 18.5871 11.4783C18.7906 11.0027 19.1863 9.51726 19.1863 9.51726L19.2203 8.50015L16.767 8.13428V8.13428Z" fill="#656565"/>
<path opacity="0.2" d="M16.767 8.13428C16.767 8.13428 16.4278 8.82943 16.3148 9.8246C16.2017 10.8198 16.3826 12.4223 16.3826 13.2199C16.3826 14.0175 16.507 14.6248 16.4278 14.7785C16.3487 14.9321 16.2921 15.0199 16.4278 15.0199C16.5635 15.0199 17.0948 15.1736 17.4114 15.2175C17.7279 15.2614 17.988 15.2907 18.0558 15.1517C18.1236 15.0126 18.395 13.4248 18.361 12.8833C18.3271 12.3418 18.3837 11.954 18.5871 11.4783C18.7906 11.0027 19.1863 9.51726 19.1863 9.51726L19.2203 8.50015L16.767 8.13428V8.13428Z" fill="black"/>
<path d="M17.7731 8.36123C17.7618 8.46368 17.8071 9.81739 17.9427 10.0662C18.0784 10.315 18.5193 10.454 18.8246 11.0321C19.1298 11.6102 19.2202 12.1443 19.5255 12.759C19.8307 13.3736 20.6673 15.3932 20.7126 15.8103C20.7691 16.2274 20.656 16.447 20.7578 16.4835C20.9387 16.5567 21.1648 16.6079 21.4135 16.6592C21.6735 16.7104 22.2501 16.7396 22.4988 16.6518C22.7362 16.5567 22.7814 16.4909 22.7023 16.125C22.6119 15.7591 22.3405 14.2883 22.1144 13.7761C21.8883 13.2639 21.4135 11.3321 21.3909 10.7101C21.357 10.0881 21.4474 9.45884 21.0743 8.94662C20.7012 8.43441 20.3621 8.25879 20.3621 8.25879L17.7731 8.36123V8.36123Z" fill="#656565"/>
<path d="M16.6993 7.98096L16.688 8.24438C16.688 8.24438 16.8123 8.67611 18.2481 8.76392C19.6839 8.85173 20.5544 8.41268 20.5544 8.41268L20.4753 8.18584C20.4753 8.18584 19.2317 8.57367 18.0446 8.44927C16.8576 8.32487 16.6993 7.98096 16.6993 7.98096V7.98096Z" fill="#762C07"/>
<path d="M18.2821 3.96341C17.7734 4.08049 17.0385 4.05854 16.8237 4.46099C16.6089 4.86345 16.2698 5.53665 16.3489 5.95374C16.428 6.37083 16.6202 6.83183 16.6315 7.06598C16.6428 7.30014 16.5637 7.66601 16.6428 7.84894C16.722 8.03188 16.7333 8.21481 17.1968 8.34652C17.8864 8.54409 18.5082 8.59532 19.2996 8.52214C20.204 8.44165 20.498 8.28067 20.5771 8.13432C20.6563 7.98066 20.7128 7.73186 20.8032 7.40258C20.8937 7.0733 21.0633 6.64157 21.0633 6.64157C21.0633 6.64157 21.4137 6.97817 21.572 7.02208C21.7416 7.0733 21.9338 7.06598 21.9338 7.06598C21.9338 7.06598 22.1147 7.16843 22.1825 7.16843C22.2616 7.16843 22.6912 7.09525 22.9965 6.97086C23.3017 6.85378 23.4374 6.76597 23.4374 6.7367C23.4374 6.70743 23.313 6.5684 23.313 6.5684C23.313 6.5684 23.4487 6.48791 23.3696 6.41473C23.2904 6.34156 22.6347 5.80739 22.4199 5.5586C22.2051 5.30981 21.8772 4.82686 21.4024 4.6732C20.9276 4.51953 20.351 4.53417 20.1701 4.48294C19.9892 4.43172 20.204 4.24147 20.1249 4.17561C20.0458 4.10976 19.017 3.78779 18.2821 3.96341V3.96341Z" fill="#E5E5E5"/>
<path d="M17.6489 5.53663L18.0899 4.95855C18.0899 4.95855 18.4629 4.90001 18.7908 4.70976C19.1186 4.51951 19.7518 4.32194 19.7518 4.32194C19.7518 4.32194 19.4239 4.12437 19.3787 3.91948C19.3448 3.70728 19.7291 3.39995 19.5822 2.90236C19.4465 2.41942 18.7795 2.06086 17.7394 2.36088C16.6993 2.66089 16.7784 3.7585 17.0045 4.23413C17.2193 4.70976 17.8298 4.54878 17.8298 4.54878C17.8298 4.54878 17.7055 4.92196 17.6942 5.06099C17.6829 5.19271 17.6489 5.53663 17.6489 5.53663ZM23.4147 6.75863C23.4147 6.75863 23.7539 7.04401 23.8556 7.24889C23.9574 7.45378 23.5165 7.87819 22.759 8.21479C22.0015 8.55139 21.0293 8.86604 20.8145 8.96117C20.5997 9.06361 19.8535 9.45143 19.5596 9.49534C18.9491 9.59778 18.6438 9.45143 18.576 9.29776C18.5082 9.1441 19.2882 8.90994 19.3787 8.84409C19.4691 8.77823 19.3787 8.6392 19.2882 8.62457C19.1978 8.60261 18.9717 8.58066 18.9152 8.47822C18.8586 8.37577 19.0508 8.41236 19.2091 8.43431C19.3674 8.45627 19.7178 8.5148 19.8309 8.54407C19.9439 8.56603 20.0118 8.65384 20.1927 8.60993C20.3736 8.56603 21.1762 7.94405 21.6285 7.70257C22.0354 7.47573 22.4764 7.40256 22.4764 7.40256L22.2503 7.16109C22.2503 7.16109 22.5442 7.1245 22.9399 6.99279C23.166 6.90498 23.4147 6.75863 23.4147 6.75863Z" fill="#E8CDC1"/>
<path d="M16.982 2.88777C16.9707 2.97558 17.0837 3.07071 17.4229 3.12924C17.8525 3.1951 18.3047 2.97558 18.6665 3.11461C18.8587 3.1951 18.9265 3.64146 19.0395 3.64146C19.0848 3.50243 19.1639 3.3634 19.3561 3.38535C19.5257 3.40731 19.5031 3.54634 19.4918 3.59756C19.5935 3.62683 19.9101 3.01948 19.5144 2.58044C19.1187 2.14871 18.2143 2.13408 17.6716 2.33165C17.1289 2.52922 16.9933 2.79996 16.982 2.88777Z" fill="black"/>
</g>
<defs>
<clipPath id="clip0_445_18882">
<rect width="10.5517" height="16.2609" fill="white" transform="translate(14.0688 1.91309)"/>
</clipPath>
</defs>
</svg>
